<svg xmlns="http://www.w3.org/2000/svg" viewBox="0 0 60 60" width="60" height="60" fill="none"><clipPath id="c"><circle cx="30" cy="30" r="30"/></clipPath><g clip-path="url(#c)"><rect x="0" y="0" width="60" height="60" rx="0" fill="#E4F1EE" /><path d="M4 64 c2-16 10-22 26-22 s24 6 26 22z" fill="#125A51" /><path d="M22 43 L30 52 L38 43 L34 42 L30 47 L26 42Z" fill="#FFFFFF" /><rect x="26" y="34" width="8" height="10" rx="3" fill="#6B4226" /><ellipse cx="30" cy="27" rx="10.5" ry="12" fill="#6B4226"/><path d="M19.4 25 C18 11 42 11 40.6 25 Q30 17.5 19.4 25Z" fill="#241a04" /><circle cx="26" cy="27.5" r="1.4" fill="#241a04" /><circle cx="34" cy="27.5" r="1.4" fill="#241a04" /><path d="M26.5 33 q3.5 3 7 0" fill="none" stroke="#241a04" stroke-width="1.4" stroke-linecap="round"/></g></svg>